HIERARCHY
ROOT Hips
{
    OFFSET 0.000000 0.000000 0.000000
    CHANNELS 6 Xposition Yposition Zposition Zrotation Xrotation Yrotation
    JOINT Spine
    {
        OFFSET -0.000000 14.517291 0.000000
        CHANNELS 3 Zrotation Xrotation Yrotation
        JOINT Spine1
        {
            OFFSET -0.000000 37.558300 0.000000
            CHANNELS 3 Zrotation Xrotation Yrotation
            JOINT Neck
            {
                OFFSET -0.000000 37.404057 3.400369
                CHANNELS 3 Zrotation Xrotation Yrotation
                JOINT Head
                {
                    OFFSET -0.000000 24.785618 -3.540803
                    CHANNELS 3 Zrotation Xrotation Yrotation
                    End Site
                    {
                        OFFSET -0.000000 35.408028 0.000000
                    }
                }
            }
            JOINT LeftShoulder
            {
                OFFSET 6.992933 33.973492 -0.192664
                CHANNELS 3 Zrotation Xrotation Yrotation
                JOINT LeftArm
                {
                    OFFSET 21.527611 0.000000 0.000000
                    CHANNELS 3 Zrotation Xrotation Yrotation
                    JOINT LeftForeArm
                    {
                        OFFSET 56.353916 0.000000 0.000000
                        CHANNELS 3 Zrotation Xrotation Yrotation
                        JOINT LeftHand
                        {
                            OFFSET 47.774071 0.000000 0.000000
                            CHANNELS 3 Zrotation Xrotation Yrotation
                            End Site
                            {
                                OFFSET 26.556021 0.000000 0.000000
                            }
                        }
                    }
                }
            }
            JOINT RightShoulder
            {
                OFFSET -7.065357 33.973492 -0.192664
                CHANNELS 3 Zrotation Xrotation Yrotation
                JOINT RightArm
                {
                    OFFSET -21.527611 0.000000 0.000000
                    CHANNELS 3 Zrotation Xrotation Yrotation
                    JOINT RightForeArm
                    {
                        OFFSET -56.353916 0.000000 0.000000
                        CHANNELS 3 Zrotation Xrotation Yrotation
                        JOINT RightHand
                        {
                            OFFSET -47.774071 0.000000 0.000000
                            CHANNELS 3 Zrotation Xrotation Yrotation
                            End Site
                            {
                                OFFSET -26.556021 0.000000 0.000000
                            }
                        }
                    }
                }
            }
        }
    }
    JOINT LeftUpLeg
    {
        OFFSET 17.704014 0.000000 0.000000
        CHANNELS 3 Zrotation Xrotation Yrotation
        JOINT LeftLeg
        {
            OFFSET -0.000000 -81.181816 0.000000
            CHANNELS 3 Zrotation Xrotation Yrotation
            JOINT LeftFoot
            {
                OFFSET -0.000000 -62.821102 0.000000
                CHANNELS 3 Zrotation Xrotation Yrotation
                JOINT LeftToeBase
                {
                    OFFSET -0.000000 -11.507608 26.556021
                    CHANNELS 3 Zrotation Xrotation Yrotation
                    End Site
                    {
                        OFFSET -0.000000 0.000000 7.081605
                    }
                }
            }
        }
    }
    JOINT RightUpLeg
    {
        OFFSET -17.704014 0.000000 0.000000
        CHANNELS 3 Zrotation Xrotation Yrotation
        JOINT RightLeg
        {
            OFFSET -0.000000 -81.181816 0.000000
            CHANNELS 3 Zrotation Xrotation Yrotation
            JOINT RightFoot
            {
                OFFSET -0.000000 -62.821102 0.000000
                CHANNELS 3 Zrotation Xrotation Yrotation
                JOINT RightToeBase
                {
                    OFFSET -0.000000 -11.507608 26.556021
                    CHANNELS 3 Zrotation Xrotation Yrotation
                    End Site
                    {
                        OFFSET -0.000000 0.000000 7.081605
                    }
                }
            }
        }
    }
}
MOTION
Frames:    12
Frame Time:    0.008333
-12.023520    151.222046    -30.681450    3.122175    -1.102377    7.956754    1.229948    2.510984    9.679470    -6.170333    0.493137    3.262535    -2.989859    1.376134    -11.224344    12.600691    3.302728    -9.858695    -0.055101    5.177788    -8.840844    -35.842518    21.481031    -50.930199    -1.948313    -26.894913    -124.995842    -6.313600    -29.925314    -5.403768    -3.190533    11.827694    2.510991    35.848965    11.809049    57.185658    -33.848114    -30.488064    44.552422    12.452577    -13.591025    35.128246    0.826444    -30.286329    -24.066652    -12.329901    25.105921    -18.867666    -5.847475    -0.786740    39.375546    0.000000    0.000000    0.000000    -2.185889    16.424473    -21.309040    0.667770    21.101156    -5.585513    6.619105    -30.573025    -6.102502    0.000000    0.000000    0.000000    
-12.071319    151.195663    -30.662018    3.148279    -1.109376    7.929696    1.254623    2.497388    9.684626    -6.161117    0.498278    3.264637    -2.997581    1.369380    -11.212114    12.578408    3.303691    -9.847286    -0.076309    5.195408    -8.809473    -35.882217    21.474775    -50.931641    -1.958278    -26.885260    -125.006226    -6.282793    -29.935356    -5.389185    -3.210803    11.824577    2.515708    35.843147    11.780810    57.188641    -33.754631    -30.452677    44.617432    12.450560    -13.570851    35.123390    0.793009    -30.311066    -24.129847    -12.345527    25.191278    -18.815212    -5.837049    -0.833319    39.425861    0.000000    0.000000    0.000000    -2.217963    16.402451    -21.327581    0.659889    21.196474    -5.541763    6.588413    -30.642851    -6.096928    0.000000    0.000000    0.000000    
-12.114349    151.172440    -30.639536    3.180919    -1.123019    7.904559    1.267655    2.489291    9.692322    -6.129092    0.506122    3.267564    -3.001896    1.358834    -11.193666    12.518084    3.303380    -9.833908    -0.123652    5.212555    -8.804113    -35.904224    21.477745    -50.900230    -1.964065    -26.901432    -125.018845    -6.278483    -29.961706    -5.391425    -3.256424    11.814370    2.522087    35.844063    11.770016    57.178570    -33.664989    -30.438637    44.687473    12.484833    -13.555660    35.156841    0.755298    -30.325354    -24.202354    -12.358545    25.270586    -18.770130    -5.842566    -0.879252    39.466644    0.000000    0.000000    0.000000    -2.261342    16.380705    -21.356760    0.648603    21.311775    -5.489756    6.622807    -30.716400    -6.077990    0.000000    0.000000    0.000000    
-12.163315    151.154099    -30.619781    3.206537    -1.137672    7.877179    1.291027    2.491679    9.701691    -6.122880    0.509208    3.271027    -2.974512    1.377947    -11.193225    12.440917    3.256184    -9.841341    -0.142384    5.212513    -8.801355    -35.957489    21.482933    -50.852005    -1.978257    -26.885897    -125.036484    -6.306415    -29.969818    -5.397797    -3.283887    11.805868    2.538717    35.865063    11.734560    57.153072    -33.556652    -30.402416    44.778927    12.522572    -13.520641    35.144264    0.736199    -30.339523    -24.233131    -12.379784    25.349493    -18.699606    -5.840577    -0.911891    39.485622    0.000000    0.000000    0.000000    -2.290596    16.350018    -21.350021    0.638048    21.431093    -5.495306    6.643688    -30.766142    -6.060675    0.000000    0.000000    0.000000    
-12.213621    151.139313    -30.602217    3.237679    -1.149694    7.854028    1.301064    2.496099    9.705667    -6.115135    0.516058    3.272776    -2.978451    1.385869    -11.186728    12.431445    3.218961    -9.831257    -0.160540    5.230465    -8.787860    -35.996490    21.465021    -50.823532    -1.979384    -26.853846    -125.036720    -6.340511    -29.937574    -5.430243    -3.297239    11.798659    2.548491    35.849430    11.719847    57.138798    -33.489731    -30.379225    44.836945    12.573992    -13.489723    35.129700    0.711285    -30.352188    -24.280827    -12.397824    25.414738    -18.668398    -5.857451    -0.942353    39.544266    0.000000    0.000000    0.000000    -2.325800    16.313560    -21.340467    0.627342    21.558620    -5.510602    6.688244    -30.817884    -6.017311    0.000000    0.000000    0.000000    
-12.265919    151.123611    -30.586380    3.265839    -1.159217    7.831040    1.305394    2.494837    9.723738    -6.099923    0.538672    3.279976    -2.999949    1.375627    -11.193954    12.455195    3.200661    -9.830908    -0.172155    5.240165    -8.783413    -36.032040    21.485611    -50.822250    -1.979781    -26.845280    -125.036034    -6.368198    -29.928364    -5.438610    -3.302055    11.780302    2.527039    35.844284    11.702107    57.129105    -33.438004    -30.320805    44.884399    12.603804    -13.422765    35.115273    0.694156    -30.366659    -24.295797    -12.413400    25.476912    -18.610266    -5.854397    -0.957539    39.546825    0.000000    0.000000    0.000000    -2.359936    16.267902    -21.341425    0.608779    21.700294    -5.489848    6.725913    -30.871212    -5.995754    0.000000    0.000000    0.000000    
-12.324824    151.107071    -30.578569    3.287842    -1.156500    7.814034    1.314399    2.485015    9.728685    -6.100450    0.559125    3.282745    -2.975245    1.365136    -11.191070    12.430829    3.178775    -9.831409    -0.169615    5.248677    -8.780211    -36.064739    21.487806    -50.808880    -1.979969    -26.820389    -125.030167    -6.384190    -29.902687    -5.450202    -3.306038    11.778743    2.533288    35.827538    11.685551    57.117764    -33.404045    -30.305052    44.912937    12.622501    -13.399764    35.153736    0.689210    -30.396069    -24.317451    -12.439729    25.527761    -18.581520    -5.861720    -0.973858    39.575619    0.000000    0.000000    0.000000    -2.390415    16.206387    -21.338633    0.610620    21.853601    -5.489158    6.942673    -30.901648    -5.950329    0.000000    0.000000    0.000000    
-12.381577    151.086548    -30.569311    3.314220    -1.166334    7.799629    1.320137    2.497022    9.728539    -6.097087    0.575442    3.283642    -2.955074    1.401878    -11.200960    12.405346    3.081133    -9.837874    -0.184153    5.249298    -8.765275    -36.090645    21.495417    -50.784565    -1.976375    -26.789965    -125.020866    -6.407310    -29.864532    -5.469003    -3.323778    11.791956    2.529381    35.822643    11.665001    57.132221    -33.386288    -30.269623    44.930779    12.608670    -13.367347    35.141346    0.683659    -30.413397    -24.316238    -12.466013    25.587910    -18.560545    -5.876485    -1.014184    39.586960    0.000000    0.000000    0.000000    -2.413539    16.150068    -21.392881    0.558912    22.009874    -5.457613    7.013731    -30.960577    -5.890696    0.000000    0.000000    0.000000    
-12.439714    151.071396    -30.567450    3.348775    -1.162942    7.795387    1.302010    2.499379    9.722620    -6.077219    0.589765    3.282208    -2.959011    1.404816    -11.206152    12.410682    3.042632    -9.838068    -0.204056    5.247975    -8.768174    -36.121571    21.501024    -50.742970    -1.998344    -26.754646    -125.030136    -6.417437    -29.866899    -5.474821    -3.337240    11.791047    2.535886    35.822124    11.648334    57.124989    -33.363846    -30.249258    44.958050    12.606420    -13.345887    35.139584    0.660773    -30.442377    -24.309959    -12.483153    25.636383    -18.534651    -5.888250    -1.007174    39.604038    0.000000    0.000000    0.000000    -2.451308    16.094830    -21.406759    0.560396    22.142292    -5.474344    7.033406    -31.018419    -5.869811    0.000000    0.000000    0.000000    
-12.501271    151.052963    -30.566978    3.378130    -1.164220    7.798869    1.292153    2.515943    9.707574    -6.084106    0.600899    3.277800    -2.940652    1.411750    -11.207835    12.426512    2.986865    -9.834676    -0.186071    5.249496    -8.758965    -36.170441    21.491455    -50.714355    -2.026097    -26.684359    -125.041084    -6.410315    -29.845713    -5.481659    -3.322685    11.773234    2.544642    35.826473    11.628639    57.104107    -33.307919    -30.251989    45.009098    12.644370    -13.339942    35.176601    0.646890    -30.468462    -24.297777    -12.502668    25.679600    -18.517736    -5.888754    -0.990964    39.607136    0.000000    0.000000    0.000000    -2.480073    16.033409    -21.463610    0.537703    22.296722    -5.460429    7.064787    -31.069351    -5.823435    0.000000    0.000000    0.000000    
-12.560696    151.035599    -30.569017    3.404384    -1.164564    7.805677    1.276508    2.531939    9.695073    -6.066263    0.618077    3.274410    -2.928233    1.419769    -11.221617    12.422026    2.922683    -9.844583    -0.212745    5.255889    -8.751239    -36.154919    21.495705    -50.709091    -2.036557    -26.665405    -125.043320    -6.389788    -29.845808    -5.475847    -3.336318    11.771038    2.535845    35.838936    11.605913    57.113129    -33.285919    -30.237814    45.030518    12.674594    -13.317432    35.171875    0.634634    -30.499546    -24.287743    -12.524456    25.728216    -18.496199    -5.906176    -0.986206    39.607292    0.000000    0.000000    0.000000    -2.507259    15.972950    -21.538780    0.514653    22.446169    -5.438766    7.126630    -31.130192    -5.765797    0.000000    0.000000    0.000000    
-12.616073    151.016815    -30.573744    3.430320    -1.157544    7.818469    1.272832    2.545218    9.675538    -6.073079    0.629663    3.268579    -2.907429    1.435434    -11.242770    12.403366    2.862706    -9.865685    -0.220572    5.264557    -8.739605    -36.132065    21.527853    -50.715229    -2.035557    -26.684696    -125.039619    -6.399685    -29.861858    -5.483258    -3.329805    11.778878    2.537346    35.809788    11.610579    57.126026    -33.328762    -30.259062    44.993912    12.700321    -13.328627    35.157539    0.616420    -30.541149    -24.291267    -12.544485    25.783579    -18.496449    -5.905143    -0.973569    39.608128    0.000000    0.000000    0.000000    -2.535285    15.907070    -21.595093    0.493291    22.596903    -5.404318    7.162602    -31.183819    -5.741666    0.000000    0.000000    0.000000    
